<svg width="512" height="512" viewBox="0 0 512 512" fill="none" xmlns="http://www.w3.org/2000/svg">
  <rect width="512" height="512" rx="100" fill="#151621"/>
  <path d="M206 143H140V320H206V275H182V192H206V143Z" fill="white"/>
  <path d="M285 143H348C356.837 143 364 150.163 364 159V204H340V171H308V202H364V264H329V303H377V264H405V202C405 189.85 395.15 180 383 180H364V159C364 127.461 338.539 102 307 102H244V143H285Z" fill="#0D8FFF"/>
  <path d="M206 362H140V407H230C290 407 296 362 296 362H206Z" fill="white"/>
  <path d="M329 303V370H244V323H204V370C204 381.15 213.85 391 226 391H370V303H329Z" fill="#0D8FFF"/>
</svg>
